<svg xmlns="http://www.w3.org/2000/svg" viewBox="0 0 800 500">
  <defs>
    <linearGradient id="bg" x1="0" y1="0" x2="1" y2="1">
      <stop offset="0%" stop-color="#fff4d6" />
      <stop offset="100%" stop-color="#e7f7ff" />
    </linearGradient>
  </defs>
  <rect width="800" height="500" fill="url(#bg)" />
  <rect y="360" width="800" height="80" fill="#bfe9ff" />
  <rect y="440" width="800" height="60" fill="#f4d7a1" />
  <g stroke="#f2b705" stroke-linecap="round" stroke-width="18">
    <line x1="80" y1="320" x2="240" y2="220" />
    <line x1="240" y1="220" x2="400" y2="320" />
    <line x1="400" y1="320" x2="560" y2="220" />
    <line x1="560" y1="220" x2="720" y2="320" />
    <line x1="80" y1="320" x2="240" y2="320" />
    <line x1="240" y1="320" x2="400" y2="320" />
    <line x1="400" y1="320" x2="560" y2="320" />
    <line x1="560" y1="320" x2="720" y2="320" />
    <line x1="160" y1="320" x2="240" y2="240" />
    <line x1="320" y1="320" x2="400" y2="240" />
    <line x1="480" y1="320" x2="560" y2="240" />
    <line x1="640" y1="320" x2="720" y2="240" />
  </g>
  <g fill="#f7c948">
    <circle cx="80" cy="320" r="10" />
    <circle cx="240" cy="220" r="10" />
    <circle cx="400" cy="320" r="10" />
    <circle cx="560" cy="220" r="10" />
    <circle cx="720" cy="320" r="10" />
  </g>
  <rect x="60" y="330" width="680" height="22" fill="#f6c453" rx="10" />
  <rect x="60" y="352" width="680" height="8" fill="#dba842" rx="4" />
</svg>
